PathFileType	4	(X/Y/Z)	TVC_16_BWA3_walk_RCNL2025.trc
DataRate	CameraRate	NumFrames	NumMarkers	Units	OrigDataRate	OrigDataStartFrame	OrigNumFrames
100	100	10	27	mm	100	462	615
Frame#	Time	R_Shoulder			L_Shoulder			C7			J_Notch			R_Elbow			L_Elbow			R_Wrist			L_Wrist			R_Asis			L_Asis			R_Psis			L_Psis			Sacral			Thoracic			Sternum			R_Thigh_Lateral			R_Knee_Lateral			R_Shank_Lateral			R_Ankle_Lateral			R_Heel			R_Toe			L_Thigh_Lateral			L_Knee_Lateral			L_Shank_Lateral			L_Ankle_Lateral			L_Heel			L_Toe		
		X1	Y1	Z1	X2	Y2	Z2	X3	Y3	Z3	X4	Y4	Z4	X5	Y5	Z5	X6	Y6	Z6	X7	Y7	Z7	X8	Y8	Z8	X9	Y9	Z9	X10	Y10	Z10	X11	Y11	Z11	X12	Y12	Z12	X13	Y13	Z13	X14	Y14	Z14	X15	Y15	Z15	X16	Y16	Z16	X17	Y17	Z17	X18	Y18	Z18	X19	Y19	Z19	X20	Y20	Z20	X21	Y21	Z21	X22	Y22	Z22	X23	Y23	Z23	X24	Y24	Z24	X25	Y25	Z25	X26	Y26	Z26	X27	Y27	Z27
462	4.61000000	1041.764526	1303.727295	-19.712515	1015.566833	1298.344360	-340.839752	976.637695	1358.076050	-167.932220	1099.853394	1215.630249	-174.137482	972.629089	1008.686523	88.564392	1017.503784	973.834045	-399.700836	1046.511292	789.125458	110.586536	1105.284180	784.354095	-333.609085	1057.823975	874.214905	-52.915005	996.138489	883.043884	-310.310913	870.916077	916.733337	-91.989883	848.598022	912.138794	-196.598434	859.757050	914.436066	-144.294159	885.535522	1098.433838	-158.425461	1111.629395	1022.034485	-193.874619	1033.579956	596.778809	43.629559	1066.340698	426.804016	-56.031639	1040.217896	267.839478	-3.944469	989.343323	55.475471	-81.406456	938.403748	48.455181	-128.904709	1109.746582	38.761982	-126.615417	1010.203308	598.543335	-396.875916	1028.565552	411.748291	-321.092377	905.079041	309.658539	-374.593170	754.268250	148.666595	-289.839661	722.744873	175.643753	-242.329422	833.192871	42.590118	-251.244858
463	4.62000000	1045.387329	1303.881592	-19.986988	1018.851196	1298.136230	-341.111847	980.133423	1358.050903	-168.198776	1103.476196	1215.720337	-174.419098	977.378296	1008.843811	89.045509	1021.556763	973.529907	-399.488770	1053.030334	789.789093	110.217934	1111.542297	784.991302	-333.696304	1061.891235	874.349365	-52.540829	1000.305786	883.093811	-310.075409	874.916809	916.567139	-91.906425	852.660461	911.870911	-196.507462	863.788635	914.219025	-144.206944	889.322021	1098.296265	-158.332367	1115.465820	1022.105896	-193.968140	1037.128174	596.594482	43.675732	1068.496216	426.350983	-55.974117	1041.699463	267.533997	-3.914565	989.462219	55.480675	-81.400360	938.424805	48.545151	-128.843704	1109.837646	38.742218	-126.609261	1016.096436	599.111694	-396.602417	1037.034180	412.733948	-321.028870	913.847229	310.611237	-375.316040	764.402405	147.928192	-292.560699	732.720032	173.519455	-244.308640	845.195251	42.653202	-257.264435
464	4.63000000	1049.003540	1304.045898	-20.303661	1022.140381	1297.940918	-341.423981	983.626831	1358.034546	-168.506546	1107.085693	1215.810425	-174.749985	982.075989	1009.019165	89.464912	1025.602539	973.254700	-399.363190	1059.524841	790.496002	109.762238	1117.725952	785.671936	-333.794098	1065.923706	874.467529	-52.254135	1004.404785	883.188110	-309.900665	878.889404	916.422668	-91.851593	856.679321	911.660400	-196.445129	867.784363	914.041534	-144.148361	893.085938	1098.180176	-158.273712	1119.273804	1022.180786	-194.104446	1040.534180	596.378235	43.626591	1070.567383	425.906219	-55.987675	1043.083130	267.269836	-3.929243	989.573425	55.496597	-81.409264	938.456177	48.640156	-128.810791	1109.918335	38.717579	-126.616875	1021.681458	599.661987	-396.310333	1045.437012	413.831360	-320.882080	922.631409	311.558838	-376.018707	775.212097	146.589661	-295.369049	743.289246	170.633224	-246.419144	858.322205	42.511246	-263.262848
465	4.64000000	1052.620361	1304.220581	-20.660091	1025.437012	1297.761963	-341.772308	987.121826	1358.029053	-168.851868	1110.685669	1215.902466	-175.127045	986.729553	1009.211487	89.821266	1029.649780	973.013489	-399.322845	1065.989563	791.241394	109.218796	1123.822998	786.391998	-333.897552	1069.925903	874.571655	-52.058270	1008.434204	883.326233	-309.788757	882.836975	916.301758	-91.822792	860.655396	911.506470	-196.408478	871.746185	913.904114	-144.115635	896.830627	1098.087646	-158.247681	1123.056152	1022.261292	-194.281677	1043.785645	596.138306	43.493626	1072.551392	425.473175	-56.066975	1044.360352	267.046112	-3.980672	989.675781	55.521481	-81.431190	938.502197	48.740067	-128.807922	1109.983154	38.685677	-126.633614	1027.010864	600.194702	-396.010773	1053.784424	415.038910	-320.686432	931.496155	312.476562	-376.753479	786.674927	144.707458	-298.261993	754.429382	167.102219	-248.700912	872.442627	42.188042	-269.082733
466	4.65000000	1056.244629	1304.405273	-21.054020	1028.742432	1297.602417	-342.153229	990.622009	1358.035522	-169.231033	1114.280029	1215.998047	-175.547318	991.348267	1009.418640	90.113800	1033.704834	972.809937	-399.365234	1072.420837	792.018616	108.587284	1129.822876	787.146271	-334.003250	1073.900757	874.663147	-51.954922	1012.394165	883.505493	-309.741211	886.762024	916.204895	-91.818451	864.589844	911.406738	-196.395584	875.675934	913.805817	-144.107018	900.559204	1098.019409	-158.253052	1126.815186	1022.348572	-194.498688	1046.878174	595.884583	43.289803	1074.446167	425.054504	-56.205200	1045.529785	266.860107	-4.061366	989.768799	55.553284	-81.463699	938.564026	48.843842	-128.833267	1110.028442	38.645836	-126.653366	1032.135986	600.712524	-395.720764	1062.086548	416.353027	-320.478455	940.503296	313.343292	-377.562744	798.747559	142.358276	-301.227234	766.099243	163.061951	-251.171753	887.403259	41.720264	-274.593414
467	4.66000000	1059.882690	1304.598145	-21.483425	1032.057373	1297.464478	-342.563538	994.130615	1358.054199	-169.640488	1117.872070	1216.097778	-176.008087	995.943054	1009.637146	90.342224	1037.771729	972.646362	-399.486481	1078.815979	792.819427	107.867718	1135.716492	787.928497	-334.109421	1077.850708	874.742432	-51.944069	1016.286133	883.721436	-309.759125	890.666321	916.131714	-91.838051	868.484192	911.357117	-196.405716	879.575256	913.744415	-144.121883	904.274658	1097.975708	-158.289322	1130.553345	1022.443054	-194.755020	1049.818481	595.628113	43.028313	1076.250366	424.652252	-56.394409	1046.595947	266.707458	-4.164765	989.852051	55.589821	-81.504105	938.640137	48.949612	-128.882065	1110.052246	38.599499	-126.670052	1037.101440	601.221313	-395.463928	1070.351562	417.768463	-320.295624	949.700012	314.144989	-378.476044	811.366516	139.634277	-304.242584	778.242493	158.657806	-253.824768	903.036194	41.153931	-279.699707
468	4.67000000	1063.540161	1304.796387	-21.946550	1035.381714	1297.349731	-343.000488	997.650452	1358.084595	-170.076813	1121.465088	1216.201782	-176.506866	1000.525940	1009.862427	90.506561	1041.852051	972.523804	-399.681793	1085.174011	793.634277	107.060402	1141.496033	788.731354	-334.215958	1081.777344	874.809326	-52.023979	1020.113098	883.968384	-309.843018	894.551270	916.081055	-91.882126	872.340210	911.352234	-196.439285	883.445740	913.716644	-144.160706	907.979858	1097.955444	-158.356766	1134.272705	1022.544373	-195.050873	1052.625488	595.379761	42.721554	1077.963867	424.267792	-56.625957	1047.568237	266.582886	-4.285515	989.925537	55.628891	-81.549667	938.727966	49.055317	-128.948395	1110.055298	38.549908	-126.679192	1041.943726	601.730957	-395.269073	1078.584717	419.278229	-320.174805	959.112122	314.874237	-379.509949	824.451355	136.637192	-307.277069	790.790344	154.036362	-256.629456	919.166687	40.540218	-284.345337
469	4.68000000	1067.222168	1304.996704	-22.441912	1038.715088	1297.258789	-343.461823	1001.184143	1358.125732	-170.536957	1125.061768	1216.309326	-177.041519	1005.109863	1010.089233	90.607086	1045.944702	972.441589	-399.945496	1091.495178	794.452576	106.165913	1147.154724	789.546539	-334.324402	1085.681396	874.863037	-52.191315	1023.879761	884.239380	-309.992889	898.417847	916.050720	-91.952255	876.160339	911.385925	-196.497864	887.289093	913.718323	-144.225060	911.677490	1097.956909	-158.456375	1137.975586	1022.651550	-195.386978	1055.327759	595.149109	42.380310	1079.587524	423.901825	-56.890980	1048.459351	266.480560	-4.419475	989.989319	55.668404	-81.597839	938.824280	49.159153	-129.026062	1110.040527	38.501125	-126.678772	1046.691040	602.255005	-395.167999	1086.787842	420.873444	-320.150940	968.743530	315.526947	-380.669189	837.909790	133.471252	-310.293457	803.666626	149.336624	-259.536011	935.620911	39.930813	-288.512146
470	4.69000000	1070.932861	1305.194824	-22.968306	1042.056763	1297.191528	-343.945862	1004.733887	1358.175781	-171.018234	1128.665039	1216.419067	-177.610214	1009.708374	1010.311401	90.644165	1050.046631	972.397949	-400.271393	1097.781128	795.263275	105.185024	1152.686768	790.364960	-334.437759	1089.563599	874.902649	-52.441326	1027.592529	884.526855	-310.208130	902.266846	916.037903	-92.051025	879.947449	911.451172	-196.584061	891.107147	913.744537	-144.317543	915.370239	1097.977295	-158.589951	1141.664307	1022.762817	-195.764526	1057.959351	594.943115	42.013191	1081.123901	423.554504	-57.180862	1049.282227	266.394623	-4.563439	990.043701	55.706463	-81.646385	938.925720	49.259705	-129.109100	1110.012329	38.456944	-126.669060	1051.366943	602.810120	-395.192993	1094.958374	422.543549	-320.255341	978.582092	316.097870	-381.948914	851.643982	130.235870	-313.251251	816.792542	144.681976	-262.481567	952.233704	39.373119	-292.215210
471	4.70000000	1074.675537	1305.386108	-23.524803	1045.406372	1297.146973	-344.451416	1008.301636	1358.232422	-171.518463	1132.277344	1216.529419	-178.211487	1014.334900	1010.522522	90.618134	1054.152466	972.389587	-400.652954	1104.034546	796.054901	104.118671	1158.087036	791.176819	-334.560318	1093.424194	874.927307	-52.768135	1031.259155	884.822937	-310.487579	906.099060	916.039368	-92.181938	883.705261	911.540710	-196.701508	894.902161	913.790039	-144.441723	919.060913	1098.013428	-158.759995	1145.341064	1022.876221	-196.185028	1060.554810	594.765381	41.626499	1082.576050	423.225311	-57.487717	1050.049194	266.319489	-4.714768	990.089050	55.741489	-81.693497	939.028748	49.355869	-129.192169	1109.975342	38.420052	-126.652115	1055.994385	603.415588	-395.374176	1103.089233	424.275940	-320.514587	988.608521	316.576447	-383.336914	865.557800	127.018585	-316.110718	830.092712	140.172958	-265.397827	968.857422	38.905991	-295.495514
